<svg width="152" height="27" viewBox="0 0 152 27" fill="none" xmlns="http://www.w3.org/2000/svg">
<g clip-path="url(#clip0_21_62)">
<path d="M6.46518 4.56152L10.8292 19.1075L15.1283 4.56152H21.5624L13.3697 26.7791H8.28428L-0.00471497 4.56152H6.46518Z" fill="#2B83F2"/>
<path d="M46.5774 26.7791V4.56152H52.6978V21.4519H62.8037V26.7701L46.5774 26.7791Z" fill="#2B83F2"/>
<path d="M63.431 15.4881C63.4411 12.6852 64.518 9.99059 66.4441 7.94825C67.5174 6.8137 68.8173 5.91583 70.26 5.31247C71.7027 4.70911 73.2562 4.41366 74.8205 4.44515C76.9756 4.44515 78.8425 4.89169 80.4212 5.78477C81.9184 6.58777 83.1461 7.81131 83.9518 9.3035L79.2764 12.6191C79.0923 12.1215 78.8096 11.6659 78.4453 11.2794C78.1129 10.9362 77.7252 10.651 77.2982 10.4355C76.8876 10.2264 76.4494 10.0761 75.9966 9.98894C75.5667 9.90789 75.1303 9.86604 74.6928 9.86391C73.9486 9.83884 73.2094 9.99514 72.5395 10.3192C71.8696 10.6433 71.2891 11.1254 70.8485 11.7237C70.4348 12.2902 70.1267 12.9262 69.939 13.6014C69.743 14.2779 69.6428 14.9783 69.641 15.6823C69.6379 16.4356 69.7543 17.1846 69.986 17.9016C70.2016 18.5838 70.5419 19.2204 70.9896 19.7793C71.4292 20.3223 71.9809 20.7647 72.6071 21.0765C73.274 21.4073 74.0107 21.5742 74.7555 21.5632C75.1888 21.5621 75.6207 21.5142 76.0437 21.4203C76.4873 21.3249 76.915 21.167 77.3139 20.9515C77.7239 20.7312 78.0954 20.4462 78.4139 20.1075C78.7515 19.7404 79.0127 19.3101 79.1823 18.8416L84.1714 21.8133C83.8273 22.6354 83.3128 23.3757 82.6614 23.9857C81.972 24.6397 81.1891 25.1882 80.3383 25.6133C79.4508 26.0574 78.5128 26.3932 77.5447 26.6136C76.5903 26.8391 75.6131 26.9544 74.6323 26.9574C73.0655 26.9762 71.515 26.6395 70.098 25.9728C68.7573 25.3391 67.5529 24.4519 66.5517 23.3606C65.561 22.2825 64.7787 21.0312 64.2442 19.6699C63.7104 18.3397 63.4345 16.9207 63.431 15.4881Z" fill="#2B83F2"/>
<path d="M91.7726 4.56152H97.3598L105.08 26.7702H98.8653L97.5211 22.4231L94.555 13.0458L91.5889 22.4231L90.2694 26.7702H84.019L91.7726 4.56152Z" fill="#2B83F2"/>
<path d="M113.051 15.8634V26.7791H106.93V4.56152H111.702L120.647 15.8545V4.56152H126.768V26.7701H121.902L113.051 15.8634Z" fill="#2B83F2"/>
<path d="M40.6631 18.0313C40.401 17.482 40.4615 17.1136 40.7998 16.6269C45.3229 10.094 41.0238 0.801535 33.1313 0.0245564C32.9073 0.00446212 32.6833 0.0111635 32.2532 0C32.9432 1.42669 33.5839 2.72835 34.2067 4.03894C34.8041 5.30265 35.3955 6.56784 35.981 7.83453C36.4873 8.93078 36.2856 9.79707 35.2193 10.3463C33.6108 11.1739 31.9679 11.9345 30.2907 12.6281C29.2109 13.0747 28.3954 12.6527 27.8846 11.5631C26.8093 9.26643 25.737 6.96749 24.6676 4.66633C24.5354 4.38501 24.392 4.10817 24.2061 3.73084C23.3519 4.79596 22.7175 6.01898 22.3396 7.32947C21.9616 8.63997 21.8475 10.012 22.0039 11.3667C22.249 13.8255 23.3438 16.1231 25.1011 17.8663C26.8583 19.6094 29.1688 20.6898 31.6371 20.9226C31.8638 20.9248 32.0843 20.9971 32.2681 21.1295C32.4518 21.2618 32.5899 21.4478 32.6631 21.6616C33.9289 24.4413 33.5301 24.1712 34.8451 26.9911C35.1095 26.8839 45.1504 26.7678 45.3744 26.6763" fill="#2B83F2"/>
<path d="M151.2 11.6079C150.675 10.268 149.904 9.03754 148.926 7.97975C147.926 6.90395 146.724 6.03327 145.389 5.41662C143.943 4.75489 142.367 4.42308 140.776 4.44539C139.204 4.42755 137.645 4.74261 136.204 5.36973C134.853 5.95532 133.627 6.79356 132.593 7.83909C131.58 8.86733 130.777 10.0802 130.225 11.4114C129.663 12.7494 129.374 14.1854 129.376 15.6357C129.376 17.072 129.653 18.4948 130.193 19.8264C130.723 21.1626 131.5 22.3879 132.483 23.4389C133.487 24.5116 134.691 25.3797 136.027 25.9954C137.473 26.6563 139.049 26.9874 140.64 26.9644C142.211 26.9812 143.768 26.6614 145.205 26.0266C146.548 25.4317 147.764 24.5876 148.79 23.5394C149.794 22.5078 150.593 21.2956 151.144 19.9671C151.707 18.6358 151.996 17.2053 151.993 15.7607C151.993 14.3391 151.724 12.9303 151.2 11.6079ZM144.255 21.856H137.1L133.516 15.6759L137.1 9.49353H144.269L147.853 15.6759L144.255 21.856Z" fill="#2B83F2"/>
</g>
<defs>
<clipPath id="clip0_21_62">
<rect width="152" height="27" fill="white"/>
</clipPath>
</defs>
</svg>
