<svg width="20" height="20" viewBox="0 0 20 20" fill="none" xmlns="http://www.w3.org/2000/svg">
<path d="M12.9726 15.3224C12.356 15.6111 11.7938 15.9248 11.1967 16.1462C6.25046 17.9784 0.853281 14.7651 0.0899118 9.54661C-0.218873 7.44866 0.28576 5.3122 1.50105 3.57233C2.71635 1.83247 4.5509 0.620053 6.63109 0.182001C11.1619 -0.789648 15.6844 2.24259 16.5194 6.81628C16.9028 8.9192 16.5257 10.8847 15.4123 12.7059C15.3044 12.8821 15.3197 12.9731 15.4631 13.1146C16.8015 14.4402 18.1343 15.7707 19.4615 17.106C20.25 17.8993 20.1574 19.0875 19.2737 19.7045C18.6049 20.1702 17.7323 20.0814 17.1165 19.4671C16.0935 18.4539 15.0743 17.4359 14.0588 16.4134C13.683 16.0407 13.3121 15.6652 12.9726 15.3224ZM14.1653 8.3376C14.1746 7.56821 14.0308 6.80462 13.7422 6.09102C13.4536 5.37743 13.026 4.728 12.4841 4.18033C11.9422 3.63265 11.2968 3.19761 10.5852 2.90038C9.87362 2.60315 9.10997 2.44963 8.33849 2.44871C7.567 2.44779 6.80299 2.59949 6.09069 2.89503C5.37838 3.19057 4.7319 3.62407 4.1887 4.17046C3.64549 4.71684 3.21633 5.36524 2.92606 6.07815C2.63578 6.79106 2.49017 7.55431 2.49763 8.32373C2.49206 11.5454 5.11479 14.1703 8.33736 14.1675C11.5488 14.1647 14.1653 11.5468 14.1653 8.3376Z" fill="white"/>
</svg>
