<svg width="16" height="16" viewBox="0 0 16 16" fill="none" xmlns="http://www.w3.org/2000/svg">
<path d="M6.6261 1.82422C5.83045 1.82422 5.06739 2.14029 4.50478 2.7029C3.94217 3.26551 3.6261 4.02857 3.6261 4.82422C3.6261 5.61987 3.94217 6.38293 4.50478 6.94554C5.06739 7.50815 5.83045 7.82422 6.6261 7.82422C7.42175 7.82422 8.18481 7.50815 8.74742 6.94554C9.31003 6.38293 9.6261 5.61987 9.6261 4.82422C9.6261 4.02857 9.31003 3.26551 8.74742 2.7029C8.18481 2.14029 7.42175 1.82422 6.6261 1.82422ZM2.1261 4.82422C2.1261 3.63074 2.6002 2.48615 3.44412 1.64224C4.28803 0.798324 5.43262 0.324219 6.6261 0.324219C7.81957 0.324219 8.96417 0.798324 9.80808 1.64224C10.652 2.48615 11.1261 3.63074 11.1261 4.82422C11.1261 6.01769 10.652 7.16229 9.80808 8.0062C8.96417 8.85011 7.81957 9.32422 6.6261 9.32422C5.43262 9.32422 4.28803 8.85011 3.44412 8.0062C2.6002 7.16229 2.1261 6.01769 2.1261 4.82422ZM13.3761 7.07422C13.575 7.07422 13.7658 7.15324 13.9064 7.29389C14.0471 7.43454 14.1261 7.62531 14.1261 7.82422V8.57422H14.8761C15.075 8.57422 15.2658 8.65324 15.4064 8.79389C15.5471 8.93454 15.6261 9.12531 15.6261 9.32422C15.6261 9.52313 15.5471 9.7139 15.4064 9.85455C15.2658 9.9952 15.075 10.0742 14.8761 10.0742H14.1261V10.8242C14.1261 11.0231 14.0471 11.2139 13.9064 11.3545C13.7658 11.4952 13.575 11.5742 13.3761 11.5742C13.1772 11.5742 12.9864 11.4952 12.8458 11.3545C12.7051 11.2139 12.6261 11.0231 12.6261 10.8242V10.0742H11.8761C11.6772 10.0742 11.4864 9.9952 11.3458 9.85455C11.2051 9.7139 11.1261 9.52313 11.1261 9.32422C11.1261 9.12531 11.2051 8.93454 11.3458 8.79389C11.4864 8.65324 11.6772 8.57422 11.8761 8.57422H12.6261V7.82422C12.6261 7.62531 12.7051 7.43454 12.8458 7.29389C12.9864 7.15324 13.1772 7.07422 13.3761 7.07422ZM4.0011 12.3242C3.0561 12.3242 2.1261 13.234 2.1261 14.5742C2.1261 14.7731 2.04708 14.9639 1.90643 15.1045C1.76578 15.2452 1.57501 15.3242 1.3761 15.3242C1.17719 15.3242 0.986421 15.2452 0.845769 15.1045C0.705116 14.9639 0.626099 14.7731 0.626099 14.5742C0.626099 12.6002 2.04585 10.8242 4.0011 10.8242H9.2511C11.2063 10.8242 12.6261 12.6002 12.6261 14.5742C12.6261 14.7731 12.5471 14.9639 12.4064 15.1045C12.2658 15.2452 12.075 15.3242 11.8761 15.3242C11.6772 15.3242 11.4864 15.2452 11.3458 15.1045C11.2051 14.9639 11.1261 14.7731 11.1261 14.5742C11.1261 13.234 10.1961 12.3242 9.2511 12.3242H4.0011Z" fill="#2B83F2"/>
</svg>
