<svg width="16" height="17" viewBox="0 0 16 17" fill="none" xmlns="http://www.w3.org/2000/svg">
<path d="M15.7364 5.82991L14.522 4.61554C14.2338 4.32729 13.7677 4.32729 13.4825 4.61554L6.13798 11.96L2.7218 8.54078C2.43354 8.25252 1.96742 8.25252 1.68223 8.54078L0.464791 9.75821C0.176531 10.0465 0.176531 10.5126 0.464791 10.8009L5.61666 15.9558C5.90492 16.244 6.37104 16.244 6.65623 15.9558L15.7333 6.87255C16.0216 6.58123 16.0216 6.11511 15.7364 5.82991ZM5.79146 9.0805C5.98158 9.27369 6.29438 9.27369 6.48451 9.0805L12.863 2.69586C13.0531 2.50267 13.0531 2.19294 12.863 2.00281L11.4769 0.613646C11.2868 0.420451 10.974 0.420451 10.7839 0.613646L6.13798 5.25953L4.43909 3.55757C4.24896 3.36438 3.93617 3.36438 3.74604 3.55757L2.35688 4.94674C2.16675 5.13993 2.16675 5.44966 2.35688 5.63979L5.79146 9.0805Z" fill="#3682F7"/>
</svg>
