<svg width="25" height="26" viewBox="0 0 25 26" fill="none" xmlns="http://www.w3.org/2000/svg">
<path d="M24.7916 5.95598C24.6823 5.51506 24.1305 5.36565 23.8092 5.68694L20.1783 9.3178L16.8639 8.76555L16.3116 5.4511L19.9425 1.82024C20.2657 1.497 20.11 0.946217 19.6661 0.835865C17.3527 0.262623 14.8053 0.880299 12.9972 2.68792C11.0616 4.62346 10.5289 7.42913 11.3346 9.87542L0.915161 20.2949C-0.305054 21.5151 -0.305054 23.4936 0.915161 24.7138C2.13538 25.934 4.11389 25.934 5.33411 24.7138L15.7448 14.3032C18.192 15.1191 20.9923 14.5805 22.9406 12.6323C24.7506 10.8222 25.3673 8.27092 24.7916 5.95598V5.95598ZM3.12512 23.6757C2.47815 23.6757 1.95325 23.1508 1.95325 22.5038C1.95325 21.8564 2.47815 21.332 3.12512 21.332C3.77209 21.332 4.297 21.8564 4.297 22.5038C4.297 23.1508 3.77209 23.6757 3.12512 23.6757Z" fill="#B6B6B6"/>
</svg>
