<svg width="48" height="34" viewBox="0 0 48 34" fill="none" xmlns="http://www.w3.org/2000/svg">
<path d="M42.9681 1.2803C44.7993 2.04427 46.1611 3.23798 46.7464 5.0312C47.4766 7.28067 46.9029 9.27549 45.147 10.9679C41.0557 14.9151 36.9471 18.857 32.85 22.7989C29.8945 25.6425 26.8522 28.4173 24.0068 31.3458C21.3585 34.0781 17.4585 34.5556 14.3987 32.2743C10.4929 28.5817 6.58123 24.8945 2.68119 21.1967C0.345799 19.0002 -0.0540564 16.1141 1.61491 13.7161C3.79383 10.5859 8.5863 10.0448 11.4722 12.655C13.7149 14.6817 15.8938 16.7667 18.0611 18.8623C18.5595 19.3451 18.8029 19.2761 19.2549 18.8305C24.6327 13.6312 30.0626 8.47968 35.4114 3.2592C37.544 1.1795 39.9721 0.415525 42.9681 1.28561V1.2803Z" fill="#FDFEFE"/>
</svg>
