<svg width="18" height="26" viewBox="0 0 18 26" fill="none" xmlns="http://www.w3.org/2000/svg">
<path d="M2.81217 25.2721C2.49971 25.2721 2.16493 25.1939 1.80783 25.0377C1.45072 24.8815 1.14942 24.6695 0.903913 24.4016C0.658406 24.1338 0.535652 23.8437 0.535652 23.5312C0.535652 23.308 0.613768 23.0737 0.77 22.8282L6.52826 12.9186L0.937391 3.07598C0.758841 2.76351 0.669565 2.47337 0.669565 2.20554C0.669565 1.89308 0.78116 1.61409 1.00435 1.36858C1.22754 1.12308 1.50652 0.933366 1.8413 0.799453C2.19841 0.665541 2.54435 0.598584 2.87913 0.598584C3.21391 0.598584 3.48174 0.699019 3.68261 0.899889C3.9058 1.07844 4.08435 1.31279 4.21826 1.60293L8.87174 10.1734L13.5252 1.60293C13.6815 1.31279 13.8712 1.07844 14.0944 0.899889C14.3175 0.699019 14.5742 0.598584 14.8644 0.598584C15.1991 0.598584 15.5339 0.665541 15.8687 0.799453C16.2258 0.933366 16.5159 1.12308 16.7391 1.36858C16.9846 1.61409 17.1074 1.89308 17.1074 2.20554C17.1074 2.47337 17.0181 2.76351 16.8396 3.07598L11.2152 12.9186L17.007 22.8282C17.1409 23.0737 17.2078 23.308 17.2078 23.5312C17.2078 23.8437 17.0851 24.1338 16.8396 24.4016C16.5941 24.6695 16.2928 24.8815 15.9357 25.0377C15.6009 25.1939 15.2661 25.2721 14.9313 25.2721C14.6858 25.2721 14.4626 25.1939 14.2617 25.0377C14.0609 24.8592 13.9046 24.6695 13.793 24.4686L8.87174 15.5634L3.95044 24.4686C3.83884 24.6695 3.68261 24.8592 3.48174 25.0377C3.30319 25.1939 3.08 25.2721 2.81217 25.2721Z" fill="white"/>
</svg>
