<svg width="17" height="18" viewBox="0 0 17 18" fill="none" xmlns="http://www.w3.org/2000/svg">
<path d="M4.76838 18C4.64053 17.8992 4.50123 17.8113 4.38666 17.6953C4.00208 17.3084 3.62635 16.9121 3.23422 16.5057C2.95795 16.7929 2.69211 17.0703 2.42548 17.3467C2.08698 17.6956 1.82009 17.6953 1.4829 17.3467C1.06629 16.9153 0.650374 16.4846 0.235154 16.0547C-0.0786053 15.7292 -0.0786067 15.4418 0.236975 15.115C2.34936 12.9289 4.46295 10.744 6.57777 8.56039C6.68999 8.44472 6.70041 8.36545 6.62984 8.2212C5.43704 5.79187 6.11663 2.78661 8.22207 1.15348C10.101 -0.304119 12.6267 -0.393905 14.5712 0.966361C15.9304 1.91706 16.7342 3.25549 16.9516 4.9447C17.1125 6.17382 16.8775 7.4236 16.2829 8.50035C15.6883 9.57711 14.7673 10.4207 13.6627 10.9005C12.1148 11.5727 10.566 11.5152 9.05399 10.7438C8.91573 10.6732 8.84568 10.6899 8.74153 10.7991C7.67779 11.9092 6.61075 13.0159 5.54041 14.119C5.50057 14.1605 5.45657 14.1975 5.40501 14.2452C5.4511 14.2991 5.48573 14.3406 5.52349 14.38C5.88299 14.7532 6.24283 15.126 6.60302 15.4984C6.9259 15.8338 6.92746 16.1186 6.60823 16.4502C6.20829 16.8643 5.81199 17.2823 5.40553 17.6905C5.28654 17.8099 5.13891 17.8986 5.00429 18.0014L4.76838 18ZM11.526 8.49298C13.0313 8.48544 14.2431 7.22574 14.2379 5.67296C14.2327 4.12018 13.0029 2.85159 11.5133 2.86184C10.7926 2.86433 10.1023 3.16302 9.59414 3.69225C9.08598 4.22149 8.80151 4.93798 8.80324 5.68429C8.80767 7.23868 10.0309 8.50054 11.526 8.49298Z" fill="#B6B6B6"/>
</svg>
