<svg width="19" height="19" viewBox="0 0 19 19" fill="none" xmlns="http://www.w3.org/2000/svg">
<g clip-path="url(#clip0_1_78)">
<path d="M0 10.0979V8.90877C0.0525368 8.52427 0.0882213 8.1368 0.160088 7.75626C1.24849 1.98729 7.26545 -1.43505 12.7724 0.583075C17.2826 2.23652 19.845 6.99618 18.7467 11.6845C17.8824 15.3739 14.8491 18.2344 11.1368 18.8562C10.7899 18.9142 10.4429 18.9528 10.096 19.0004H8.90648C8.86574 18.9883 8.82438 18.9783 8.78257 18.9707C8.3489 18.9072 7.91125 18.8656 7.48253 18.7794C3.7995 18.0426 0.750383 14.8794 0.147201 11.1781C0.0902033 10.8194 0.0490674 10.4582 0 10.0979ZM3.46941 15.3075C4.70849 12.7899 6.68605 11.349 9.5047 11.35C12.3234 11.351 14.3074 12.7984 15.5336 15.311C18.6144 12.1562 18.7666 6.92979 15.427 3.58128C12.1256 0.271413 6.72372 0.315511 3.5046 3.64817C0.194781 7.07348 0.461431 12.2617 3.46793 15.3075H3.46941ZM4.36155 16.1161C4.42251 16.1657 4.46067 16.1964 4.49883 16.2252C5.61053 17.0482 6.84564 17.5793 8.21606 17.7825C10.5084 18.1224 12.5905 17.6001 14.4729 16.2544C14.6047 16.1597 14.6152 16.0815 14.5611 15.9388C13.6616 13.5678 11.2563 12.1265 8.72855 12.511C6.57702 12.838 5.15951 14.0995 4.36056 16.1161H4.36155Z" fill="#B6B6B6"/>
<path d="M13.0336 6.53895C13.0361 7.00603 12.9458 7.46895 12.7682 7.90095C12.5905 8.33294 12.3289 8.72542 11.9985 9.05568C11.6681 9.38594 11.2755 9.64743 10.8434 9.82502C10.4112 10.0026 9.94818 10.0928 9.48097 10.0903C9.01376 10.0878 8.55168 9.99269 8.12147 9.81051C7.69126 9.62833 7.30146 9.36268 6.97461 9.02891C6.64777 8.69515 6.39037 8.2999 6.21731 7.86604C6.04426 7.43218 5.95897 6.96832 5.9664 6.5013C5.97929 4.5565 7.57027 2.97788 9.50918 2.9863C10.4477 2.99063 11.346 3.36725 12.0069 4.0334C12.6677 4.69955 13.037 5.60074 13.0336 6.53895ZM7.0796 6.51864C7.07989 6.99745 7.22226 7.46542 7.48869 7.86331C7.75512 8.2612 8.13363 8.57114 8.57632 8.7539C9.01901 8.93665 9.50598 8.98402 9.9756 8.88999C10.4452 8.79597 10.8764 8.56478 11.2145 8.22569C11.5527 7.88659 11.7826 7.45484 11.8752 6.98506C11.9678 6.51528 11.919 6.0286 11.7348 5.5866C11.5506 5.1446 11.2394 4.76715 10.8406 4.50203C10.4418 4.2369 9.97326 4.09601 9.49431 4.09719C8.85332 4.09954 8.23937 4.35565 7.78682 4.80947C7.33428 5.26328 7.07998 5.87783 7.0796 6.51864Z" fill="#B6B6B6"/>
</g>
<defs>
<clipPath id="clip0_1_78">
<rect width="19" height="19" fill="white"/>
</clipPath>
</defs>
</svg>
