<svg width="33" height="33" viewBox="0 0 33 33" fill="none" xmlns="http://www.w3.org/2000/svg">
<g clip-path="url(#clip0_18_50)">
<path d="M16.9341 0C21.9818 0.155009 26.6133 2.13845 30.0361 6.55565C33.8061 11.4186 33.987 18.1542 30.5393 23.2491C30.355 23.5218 30.3256 23.7424 30.4285 24.0581C31.2042 26.4421 31.9596 28.8328 32.716 31.2236C32.9863 32.0779 32.6448 32.8371 31.86 32.9819C31.531 33.043 31.1228 32.957 30.8175 32.8054C28.5209 31.666 26.2379 30.4995 23.9606 29.3228C23.6214 29.1474 23.3477 29.1304 22.9802 29.2639C16.7079 31.528 10.8268 30.8072 5.56544 26.6446C1.71634 23.5965 -0.217254 19.4995 0.0190745 14.5494C0.242964 9.84252 2.45925 6.13927 6.20431 3.35137C9.24379 1.08846 12.7073 0.0565727 16.9341 0ZM12.5965 15.2645C12.601 14.5777 12.0334 13.9984 11.347 13.9882C10.6618 13.978 10.076 14.5426 10.0613 15.2282C10.0455 15.9297 10.6312 16.5283 11.3323 16.526C12.0175 16.5249 12.5931 15.9512 12.5976 15.2645H12.5965ZM16.4015 16.526C17.0867 16.5294 17.6657 15.9592 17.6747 15.2735C17.6838 14.5878 17.1195 14.0029 16.4331 13.9882C15.7321 13.9735 15.135 14.5596 15.1384 15.2622C15.1418 15.9478 15.7151 16.5238 16.4003 16.5272L16.4015 16.526ZM22.7541 15.2633C22.7586 14.5777 22.1898 13.9972 21.5035 13.9882C20.8182 13.9791 20.2336 14.5437 20.2189 15.2294C20.2042 15.9309 20.7899 16.5283 21.491 16.526C22.1763 16.5238 22.7507 15.9501 22.7552 15.2633H22.7541Z" fill="white"/>
</g>
<defs>
<clipPath id="clip0_18_50">
<rect width="33" height="33" fill="white"/>
</clipPath>
</defs>
</svg>
