<svg width="38" height="23" viewBox="0 0 38 23" fill="none" xmlns="http://www.w3.org/2000/svg">
<g clip-path="url(#clip0_18_40)">
<path d="M0 11.0875C1.00442 10.1043 1.86996 9.23688 2.75812 8.3919C5.03502 6.21039 7.4088 4.14454 10.1572 2.55741C16.3743 -1.03454 22.5494 -0.748594 28.6566 2.8305C31.9347 4.75177 34.625 7.36701 37.1474 10.1654C37.4316 10.4802 37.7093 10.7983 38.0032 11.1324C34.8705 14.2971 31.7732 17.4457 27.8363 19.579C21.0928 23.232 14.5431 22.7886 8.25497 18.4673C5.65834 16.6842 3.48479 14.4192 1.27571 12.1991C0.897841 11.82 0.465069 11.4891 0.00322964 11.0907L0 11.0875ZM19.042 3.16142C14.7078 3.16784 11.1681 6.6891 11.1649 11.0007C11.1617 15.3348 14.7143 18.8657 19.0711 18.8593C23.4052 18.8529 26.9449 15.3284 26.9482 11.0168C26.9482 6.68268 23.402 3.15499 19.0388 3.1582L19.042 3.16142Z" fill="white"/>
<path d="M18.9806 6.35166C18.2475 7.82956 18.2895 9.25285 19.4554 10.4769C20.6859 11.7653 22.1651 11.8585 23.7379 11.097C23.8412 13.2849 21.9034 15.6946 19.1583 15.7363C16.3775 15.7781 14.1717 13.5291 14.3332 10.7468C14.5076 7.7878 17.1333 6.20387 18.9774 6.34845L18.9806 6.35166Z" fill="white"/>
</g>
<defs>
<clipPath id="clip0_18_40">
<rect width="38" height="22.04" fill="white"/>
</clipPath>
</defs>
</svg>
