<svg width="50" height="50" viewBox="0 0 50 50" fill="none" xmlns="http://www.w3.org/2000/svg">
<g clip-path="url(#clip0_17_33)">
<path d="M0.131318 36.9632C0.390029 35.6628 1.15441 35.855 2.03442 35.957C2.44013 34.994 2.83799 34.0486 3.23782 33.0954C2.14613 31.7088 2.13634 31.3459 3.17118 30.2947C4.86065 28.5765 4.99589 28.555 6.62068 29.7769C7.08322 29.5572 7.54381 29.316 8.02203 29.1179C8.46498 28.9335 8.92752 28.7923 9.36067 28.6373C9.59586 26.7388 10.7895 26.7094 12.7161 26.8663C14.1429 26.982 14.0665 27.5017 14.2468 28.0058C14.3487 28.2941 14.3742 28.6648 14.6172 28.7864C15.3404 29.1453 16.1087 29.4121 16.8849 29.7259C18.6469 28.602 18.8997 28.655 20.5735 30.532C21.332 31.3832 21.2771 31.8676 20.2677 33.0778C20.644 33.9878 21.0243 34.9096 21.4143 35.853C23.3056 36.2218 24.1994 37.9046 23.3017 39.6972C23.09 40.1189 22.4041 40.2994 21.9396 40.5955C21.7044 40.7465 21.3692 40.8583 21.2634 41.076C20.8969 41.8331 20.6127 42.6294 20.2893 43.4316C21.4574 45.1066 21.4143 45.3302 19.5445 47.0522C18.6586 47.8681 18.2137 47.825 16.9496 46.7992C16.1401 47.1248 15.3169 47.4209 14.5349 47.7975C14.3193 47.9014 14.1312 48.2349 14.0861 48.4898C13.9018 49.5588 13.4844 49.9648 12.4162 49.9961C12.1889 50.002 11.9615 49.9961 11.7342 49.9961C9.84869 49.9961 9.59194 49.7745 9.37439 47.9603C8.45518 47.5778 7.53205 47.1914 6.59716 46.8011C4.98413 48.0015 4.84889 47.9779 3.11238 46.1912C2.15201 45.2007 2.16965 44.8143 3.24174 43.4551L2.25981 41.1035C1.3112 40.4778 0.725179 41.029 0.36063 40.4013C-0.0979953 39.6149 -0.0411571 37.8556 0.137197 36.9612L0.131318 36.9632ZM7.45953 38.2184C7.43405 40.5759 9.33127 42.5353 11.6695 42.5706C14.0704 42.6059 16.0323 40.6818 16.0421 38.2831C16.0499 35.9335 14.1351 33.9976 11.7832 33.98C9.43319 33.9623 7.48501 35.8727 7.45953 38.2184Z" fill="white"/>
<path d="M41.2214 0.645396C47.3188 2.51061 50.8878 8.79077 49.806 15.218C48.779 21.3138 43.2363 25.8386 36.8841 25.768C30.675 25.6974 25.3263 21.0098 24.4052 14.8277C23.3586 7.79834 28.0232 1.35736 35.0261 0.158988C35.2123 0.127607 37.8209 -0.396066 41.2234 0.645396H41.2214ZM37.1448 3.11078C31.7804 3.1049 27.3901 7.47276 27.3725 12.835C27.3549 18.2051 31.7079 22.6103 37.0664 22.6416C42.466 22.673 46.8955 18.2659 46.8896 12.8644C46.8837 7.4963 42.5091 3.11862 37.1448 3.11078Z" fill="white"/>
<path d="M15.1993 23.4183C11.352 23.5654 8.31406 19.9899 9.15291 16.5085C9.39594 15.4985 9.94865 15.32 10.7287 16.0221C11.4284 16.6537 12.0948 17.3225 12.7984 17.9501C13.504 18.5817 14.1821 18.562 14.8603 17.9168C15.1425 17.6481 15.4149 17.3656 15.6736 17.0754C16.3008 16.3712 16.291 15.7044 15.6129 15.0277C14.9465 14.3609 14.237 13.7352 13.5706 13.0703C12.8337 12.3329 13.0061 11.7464 14.0136 11.4895C17.5512 10.5853 21.1967 13.4332 21.1183 17.095C21.1007 17.8874 21.3261 18.3973 21.8964 18.9347C25.2087 22.0591 28.4857 25.2188 31.7549 28.3883C32.1842 28.8041 32.582 28.9688 33.2014 28.9257C36.398 28.7021 39.1341 31.0459 39.4536 34.2075C39.7789 37.4319 37.4191 40.4229 34.1304 40.9564C31.116 41.4448 28.1388 39.4188 27.4607 36.414C27.4117 36.1924 27.3509 35.9551 27.3745 35.7413C27.4999 34.6292 26.9178 33.676 26.0495 32.862C22.9626 29.973 19.9326 27.0232 16.8947 24.0832C16.3596 23.5654 16.2381 23.181 15.2013 23.4183H15.1993ZM33.5091 32.3913C32.0156 32.407 30.9023 33.4112 30.918 34.7312C30.9376 36.3375 31.9529 37.481 33.3444 37.4653C34.8849 37.4476 36.0296 36.4768 36.0178 35.196C36.0002 33.3445 35.1319 32.3737 33.5091 32.3913Z" fill="white"/>
<path d="M41.4801 19.8133C41.0431 18.966 40.6609 18.2226 40.2513 17.4283C39.7828 17.6558 39.3614 17.8618 38.8773 18.0991C39.2615 18.8875 39.628 19.6407 39.9925 20.3938C38.6265 21.2902 35.9453 21.3176 34.2578 20.4331C34.6184 19.6858 34.9829 18.9366 35.3749 18.1226C34.9359 17.8873 34.5204 17.6656 34.0285 17.4028C33.6188 18.1932 33.221 18.9621 32.7819 19.8074C30.5652 18.3305 29.3364 16.3496 28.9816 13.6763H31.6354V12.1308H28.9895C29.3011 9.43985 30.5456 7.47068 32.7682 5.95261C33.1935 6.75676 33.5933 7.51579 34.0226 8.3317L35.3887 7.657C35.0065 6.87248 34.638 6.11933 34.2205 5.26811C36.1628 4.46397 38.0483 4.49731 40.0396 5.24654C39.6417 6.07029 39.2811 6.82148 38.8871 7.63543C39.3262 7.86883 39.7417 8.09046 40.2356 8.35523C40.6413 7.56874 41.0372 6.79794 41.4782 5.94477C43.7027 7.42361 44.912 9.41631 45.2824 12.0837H42.6228V13.6312H45.2687C44.9473 16.3162 43.7164 18.2952 41.4743 19.8172L41.4801 19.8133ZM41.0333 12.8937C41.047 10.748 39.3007 8.98482 37.1506 8.97305C35.0025 8.96128 33.2386 10.7108 33.2308 12.8565C33.2249 15.01 34.9692 16.7752 37.1114 16.7811C39.2556 16.787 41.0215 15.0394 41.0333 12.8937Z" fill="white"/>
<path d="M37.1095 10.5381C35.8669 10.5479 34.8222 11.5795 34.7968 12.825C34.7693 14.1077 35.8257 15.2002 37.1075 15.2139C38.3874 15.2276 39.4693 14.1587 39.4693 12.8779C39.4693 11.5933 38.3952 10.5302 37.1114 10.54L37.1095 10.5381ZM38.1757 12.9682V12.8838C38.1953 12.8995 38.2129 12.9152 38.2325 12.9329C38.2129 12.9446 38.1953 12.9564 38.1757 12.9701V12.9682Z" fill="white"/>
</g>
<defs>
<clipPath id="clip0_17_33">
<rect width="50" height="50" fill="white"/>
</clipPath>
</defs>
</svg>
