<svg width="49" height="29" viewBox="0 0 49 29" fill="none" xmlns="http://www.w3.org/2000/svg">
<g clip-path="url(#clip0_18_52)">
<path d="M0 19.4235C0.260876 18.9865 0.659862 18.8853 1.13976 18.8923C2.33533 18.9106 3.53229 18.898 4.72785 18.898C4.89526 18.898 5.06406 18.898 5.28029 18.898C3.94243 16.9249 3.98289 15.1528 5.34307 13.9442C6.68093 12.7554 8.56147 12.7652 9.86306 13.9681C11.2135 15.216 11.2456 16.9713 9.92165 18.8558H22.6822C21.3597 16.8364 21.4155 15.1444 22.8259 13.9105C24.1205 12.7764 25.9355 12.7764 27.2343 13.9133C28.6391 15.1416 28.6949 16.8532 27.3696 18.8628H34.1901V18.2614C34.1901 13.0884 34.1901 7.91407 34.1929 2.74113C34.1929 2.48677 34.2082 2.22538 34.2612 1.97805C34.3686 1.46933 34.8444 1.118 35.3438 1.1461C35.86 1.17421 36.2896 1.54802 36.3608 2.06377C36.3984 2.33218 36.3887 2.60762 36.3943 2.88025C36.3998 3.15007 36.3943 3.41989 36.3943 3.76419H36.9941C40.0242 3.76419 43.0543 3.76419 46.0857 3.76419C47.0051 3.76419 47.1627 3.88364 47.3162 4.79709C47.877 8.13611 48.4266 11.4751 48.9777 14.8155C49.0014 14.9575 48.9972 15.1036 48.9972 15.2484C48.9972 17.546 49 19.8437 48.9972 22.1414C48.9972 22.927 48.7405 23.1898 47.9718 23.1926C46.7456 23.1968 45.5193 23.1926 44.2317 23.1926C44.2415 24.8832 43.6458 26.28 42.2786 27.2708C41.4681 27.8582 40.5432 28.1407 39.5373 28.1083C38.2469 28.0676 37.1601 27.5645 36.2785 26.6159C35.394 25.6631 35.0731 24.4953 35.0494 23.2123H16.2636C16.2524 24.8522 15.6958 26.2337 14.3663 27.2216C13.5028 27.8624 12.5262 28.1589 11.4506 28.1027C8.92697 27.9706 7.38125 26.2632 7.05341 23.1926C6.73115 23.1926 6.40052 23.1926 6.0699 23.1926C4.90502 23.1926 3.73875 23.149 2.57807 23.2038C1.2988 23.2657 0.426888 22.7808 0.00139506 21.5441V19.4235H0ZM36.4208 18.867H47.4068C47.4068 17.5236 47.5185 16.1998 47.3803 14.9027C47.1795 13.0238 46.7986 11.1645 46.4903 9.29689C46.2741 7.98714 46.0509 6.6788 45.829 5.36765H36.4194V18.867H36.4208ZM11.6613 20.4803C10.0067 20.486 8.64099 21.8674 8.65075 23.5228C8.66191 25.1839 10.0388 26.5611 11.6808 26.5555C13.3284 26.5485 14.6941 25.1614 14.6844 23.5031C14.6746 21.8266 13.3214 20.4747 11.6613 20.4803ZM36.6412 23.527C36.6482 25.1965 38.0153 26.5667 39.6643 26.5555C41.3063 26.5442 42.6874 25.1403 42.6734 23.4989C42.6595 21.8322 41.2909 20.4733 39.635 20.4803C37.9721 20.4874 36.6342 21.8505 36.6412 23.527ZM16.597 20.4958C17.1201 20.9005 17.5387 21.2364 17.9725 21.5498C18.0646 21.6158 18.2111 21.6285 18.3325 21.6285C23.942 21.6327 29.5515 21.6327 35.1624 21.6257C35.2866 21.6257 35.4624 21.5779 35.5251 21.4893C35.7442 21.1844 35.9227 20.8513 36.1376 20.4944H16.597V20.4958ZM8.15132 20.5211H1.57083C1.51085 21.5189 1.61548 21.6327 2.54598 21.6327C4.05822 21.6327 5.57186 21.6397 7.0841 21.6228C7.25848 21.6214 7.48588 21.5343 7.59469 21.405C7.80674 21.1535 7.95322 20.8443 8.15132 20.5197V20.5211ZM7.58074 18.1869C8.55589 18.1911 9.35107 17.4111 9.36642 16.4344C9.38037 15.4564 8.54891 14.6132 7.57795 14.6244C6.61257 14.6342 5.82855 15.4367 5.82995 16.4148C5.82995 17.4013 6.60281 18.1841 7.58214 18.1883L7.58074 18.1869ZM25.0469 18.1869C26.022 18.1798 26.8005 17.3887 26.7977 16.4063C26.7949 15.4367 25.9955 14.6272 25.0357 14.623C24.0606 14.6188 23.2431 15.4549 23.2584 16.4415C23.2737 17.4196 24.0689 18.1939 25.0469 18.1869ZM47.4208 20.5183H44.427C45.2306 21.4388 46.1778 21.9053 47.4208 21.554V20.5183Z" fill="white"/>
<path d="M31.8185 12.3C32.0849 12.3 32.3221 12.2874 32.5579 12.3028C33.1173 12.3394 33.4005 12.6275 33.4061 13.1952C33.4158 14.2393 33.4172 15.2835 33.4061 16.3276C33.4005 16.8673 33.1173 17.1792 32.5858 17.1919C31.7097 17.2144 30.8308 17.213 29.9547 17.1947C29.3953 17.1821 29.1358 16.8926 29.0911 16.256C29.0116 15.1345 28.6112 14.1592 27.77 13.4102C26.4935 12.2719 25.019 11.9979 23.4607 12.657C21.8564 13.3357 21.0542 14.6469 20.9677 16.3909C20.8896 17.9634 20.8896 17.9718 19.3034 17.9718C17.1188 17.9718 14.9327 17.9718 12.748 17.9718C11.9222 17.9718 11.6585 17.7133 11.6697 16.8729C11.6934 15.1177 11.0921 13.6983 9.51011 12.8228C6.98226 11.4245 3.84338 13.1137 3.55879 16.0156C3.45695 17.0528 3.29234 17.2003 2.24186 17.2017C1.87496 17.2017 1.50806 17.2088 1.14116 17.2003C0.48827 17.1863 0.195308 16.9038 0.193913 16.2588C0.188332 14.3461 0.186937 12.4349 0.193913 10.5223C0.196703 9.93067 0.48548 9.63977 1.07001 9.60604C1.29322 9.59339 1.51643 9.60323 1.73964 9.60323C1.94471 9.60323 2.14978 9.60323 2.37578 9.60323C2.83057 7.9014 3.27839 6.2319 3.7248 4.56099C3.98149 3.60116 4.234 2.63993 4.49488 1.6801C4.66089 1.06036 4.86875 0.897348 5.50908 0.897348C10.103 0.894537 14.6969 0.900158 19.2909 0.888916C19.754 0.888916 20.0679 1.06598 20.3427 1.42574C21.7183 3.21751 23.1022 5.00225 24.4986 6.77716C24.6451 6.96266 24.8767 7.12427 25.0999 7.19594C26.813 7.74963 28.5289 8.29348 30.2546 8.80361C30.7917 8.96241 31.093 9.24207 31.2074 9.80278C31.3748 10.6193 31.6008 11.4231 31.8185 12.3014V12.3ZM16.8997 8.95679C18.3018 8.95679 19.7038 8.95398 21.1044 8.95819C21.4881 8.95819 21.8466 8.91463 22.0391 8.52114C22.2275 8.13468 22.0712 7.81849 21.8313 7.50792C20.9245 6.32886 20.0219 5.14559 19.1304 3.9553C18.8486 3.57727 18.5138 3.40442 18.0353 3.40863C16.2831 3.4269 14.5309 3.41425 12.7787 3.41706C11.9808 3.41706 11.7199 3.67705 11.7157 4.48369C11.7087 5.60653 11.7101 6.73078 11.7157 7.85362C11.7185 8.71508 11.9654 8.95538 12.8401 8.95819C14.1947 8.961 15.5479 8.95819 16.9025 8.95819L16.8997 8.95679ZM10.23 6.16725C10.23 5.55735 10.2411 4.94885 10.2272 4.33895C10.2132 3.71921 9.91746 3.4255 9.31061 3.41706C8.56286 3.40723 7.81372 3.41988 7.06597 3.41285C6.58049 3.40723 6.27915 3.6377 6.16476 4.10285C5.85645 5.34515 5.54675 6.58744 5.25937 7.83395C5.09335 8.55206 5.40724 8.94133 6.14941 8.95117C7.19989 8.96522 8.25037 8.96522 9.30085 8.95117C9.94397 8.94273 10.2188 8.65043 10.23 7.99415C10.2397 7.38565 10.2327 6.77575 10.2314 6.16585L10.23 6.16725Z" fill="white"/>
<path d="M39.2095 10.9805C39.2095 9.82389 39.2039 8.66732 39.2095 7.51075C39.2137 6.7575 39.4718 6.50595 40.2251 6.50455C41.4695 6.50174 42.7125 6.50174 43.9569 6.50455C44.646 6.50595 44.8776 6.69427 44.9906 7.366C45.3017 9.20134 45.6309 11.0325 45.9016 12.8748C45.9909 13.4875 45.9462 14.1269 45.9169 14.7509C45.896 15.2062 45.5919 15.476 45.1217 15.4788C43.4156 15.4901 41.708 15.4915 40.0019 15.4788C39.4787 15.4746 39.2179 15.1739 39.2123 14.5977C39.1997 13.3934 39.2081 12.1876 39.2081 10.9833L39.2095 10.9805ZM44.3475 13.9007C44.4368 13.4889 44.3824 13.2008 44.0085 12.9423C43.0375 12.2705 42.1014 11.5454 41.15 10.8441C41.044 10.7654 40.9268 10.7008 40.7929 10.6151V13.8993H44.3489L44.3475 13.9007Z" fill="white"/>
<path d="M13.0089 23.5327C12.9964 24.2733 12.3937 24.8565 11.6515 24.8467C10.9107 24.8383 10.3276 24.2368 10.3388 23.492C10.3499 22.7542 10.961 22.1555 11.692 22.1682C12.423 22.1808 13.0215 22.8006 13.0089 23.5327Z" fill="white"/>
<path d="M40.9742 23.5214C40.9714 24.2774 40.3827 24.8564 39.628 24.848C38.9095 24.8395 38.3194 24.2507 38.3069 23.5298C38.2957 22.8032 38.9151 22.1708 39.6434 22.1694C40.3799 22.1666 40.977 22.7737 40.9742 23.5228V23.5214Z" fill="white"/>
<path d="M7.60864 15.2611C8.24479 15.2695 8.74562 15.7979 8.72888 16.443C8.71213 17.0557 8.19596 17.5728 7.59469 17.5756C6.98924 17.5784 6.4354 17.0191 6.43819 16.4064C6.44098 15.7782 6.97808 15.2527 7.60864 15.2611Z" fill="white"/>
<path d="M23.8918 16.3404C23.935 15.6925 24.4707 15.2231 25.1138 15.2681C25.7277 15.3117 26.2062 15.8513 26.1741 16.4626C26.1392 17.0936 25.57 17.6164 24.9687 17.57C24.3326 17.5208 23.8485 16.9685 23.8918 16.3404Z" fill="white"/>
</g>
<defs>
<clipPath id="clip0_18_52">
<rect width="49" height="27.2222" fill="white" transform="translate(0 0.888916)"/>
</clipPath>
</defs>
</svg>
