<svg width="98" height="11" viewBox="0 0 98 11" fill="none" xmlns="http://www.w3.org/2000/svg">
<g clip-path="url(#clip0_1_94)">
<path d="M54.7573 5.21132C55.1649 5.38066 55.5013 5.49313 55.8135 5.6556C56.8072 6.1736 57.2767 7.33646 57.0283 8.52307C56.7683 9.77778 55.9125 10.3527 54.8029 10.6232C54.3494 10.7289 53.886 10.7827 53.4211 10.7838C51.7714 10.8007 50.1212 10.7801 48.4716 10.7926C48.1612 10.7926 48.0725 10.6888 48.0731 10.3808C48.081 7.12151 48.0774 3.86225 48.0792 0.602992C48.0792 0.203708 48.0974 0.191212 48.5001 0.190588C49.9153 0.190588 51.3305 0.178714 52.7451 0.196835C53.5638 0.206832 54.3783 0.289941 55.1345 0.659856C56.4543 1.30409 56.9141 3.06306 56.085 4.30091C55.836 4.67582 55.4777 4.90577 55.078 5.07198C54.9918 5.10884 54.9043 5.14758 54.7573 5.21132ZM51.8875 6.26546C51.2801 6.26546 50.6727 6.27546 50.0653 6.26046C49.809 6.25421 49.7282 6.35919 49.7301 6.60725C49.7373 7.36708 49.7398 8.12691 49.7301 8.88673C49.7264 9.1548 49.8139 9.24728 50.0817 9.24416C51.1841 9.23041 52.2877 9.24853 53.3901 9.23166C53.7231 9.22179 54.0541 9.17571 54.3777 9.09419C54.9972 8.94735 55.3459 8.49933 55.3866 7.85385C55.4272 7.20837 55.1351 6.68599 54.5623 6.47229C54.2494 6.35869 53.922 6.29238 53.5905 6.27546C53.022 6.24296 52.4547 6.26546 51.8875 6.26546ZM51.5838 4.74268C51.7557 4.74268 51.9288 4.75205 52.1 4.74268C52.6728 4.70456 53.2541 4.70519 53.8159 4.60146C54.3145 4.50961 54.6662 4.15531 54.7622 3.62043C54.8612 3.07243 54.8126 2.53006 54.3297 2.18326C54.0746 2.00143 53.7442 1.85084 53.4405 1.83647C52.2798 1.78085 51.1161 1.7871 49.9536 1.76773C49.744 1.76398 49.7343 1.91082 49.7337 2.06204C49.7337 2.85311 49.7337 3.6448 49.7307 4.4365C49.7307 4.65957 49.8096 4.74893 50.0344 4.74893C50.5512 4.73393 51.0675 4.74205 51.5838 4.74268Z" fill="black"/>
<path d="M65.7866 0.0318696C66.9892 -0.0249925 68.1554 0.297431 69.1648 1.08725C70.3638 2.02454 70.9445 3.32362 71.0775 4.8364C71.1923 6.1486 71.0301 7.42394 70.3426 8.56368C69.4485 10.0452 68.1183 10.8169 66.4359 10.9494C65.4034 11.0306 64.3781 10.9925 63.399 10.5826C62.2523 10.1052 61.388 9.30851 60.862 8.15815C60.2042 6.72097 60.1235 5.21444 60.5426 3.69854C61.1554 1.48216 62.9514 0.0943529 65.3026 0.0293677C65.441 0.0287429 65.5825 0.0318696 65.7866 0.0318696ZM65.6919 1.6415C64.0933 1.6415 62.8785 2.40695 62.3689 3.78352C61.9478 4.88193 61.9458 6.10353 62.3635 7.20336C62.7085 8.13378 63.3492 8.78113 64.2743 9.12605C64.9594 9.38099 65.656 9.40099 66.3673 9.31351C67.2176 9.20853 67.9337 8.84049 68.4894 8.16752C68.9407 7.62202 69.1837 6.98029 69.279 6.27357C69.4187 5.23631 69.3361 4.22779 68.8132 3.31237C68.1177 2.09578 67.0153 1.63901 65.6919 1.6415Z" fill="black"/>
<path d="M79.6136 0.00126535C80.7481 -0.0224793 81.8129 0.221214 82.7719 0.855445C83.9466 1.63464 84.6602 2.75751 84.905 4.16719C85.2919 6.38606 84.905 8.37998 83.1284 9.88714C82.3 10.5901 81.3111 10.8988 80.2422 10.9713C78.9436 11.06 77.6912 10.9175 76.5651 10.1958C75.1906 9.31665 74.483 8.0007 74.2844 6.37357C74.166 5.40129 74.2158 4.43651 74.5274 3.50672C75.1603 1.61777 76.4558 0.50365 78.3484 0.124986C78.7614 0.0425048 79.1908 0.042506 79.6136 0.00126535ZM79.6348 9.36726L79.6603 9.44849C80.2148 9.30853 80.7991 9.24042 81.3172 9.01109C82.2732 8.59119 82.8502 7.80011 83.1084 6.75785C83.4121 5.52626 83.3428 4.32903 82.6948 3.23865C81.8621 1.83647 80.5325 1.53154 79.0541 1.67151C78.3932 1.72449 77.7645 1.98639 77.2539 2.42134C76.525 3.0462 76.1563 3.86664 76.0476 4.82329C75.9365 5.80494 76.0124 6.76035 76.4928 7.63515C77.1822 8.89487 78.2949 9.35289 79.6348 9.36726Z" fill="black"/>
<path d="M35.6803 5.4744C35.6803 3.81936 35.6803 2.16411 35.6803 0.508655C35.6803 0.321197 35.6936 0.191226 35.936 0.191851C38.2804 0.19685 40.6255 0.191851 42.9706 0.191851C43.0416 0.191851 43.1127 0.191851 43.1832 0.191851C43.4395 0.17623 43.5476 0.288703 43.5294 0.561141C43.512 0.873315 43.512 1.18625 43.5294 1.49843C43.5427 1.76274 43.4358 1.83335 43.1911 1.8321C41.3793 1.82398 39.5681 1.82773 37.7563 1.82773C37.336 1.82773 37.3347 1.82773 37.3341 2.25826C37.3341 2.92477 37.3341 3.59129 37.3341 4.2578C37.3341 4.70708 37.3341 4.7102 37.7721 4.70895L41.9818 4.7002C42.3893 4.7002 42.3905 4.7002 42.4015 5.11636C42.4082 5.3863 42.3924 5.65873 42.4185 5.92867C42.4458 6.21111 42.3365 6.28922 42.0759 6.28734C40.6601 6.27859 39.2443 6.28297 37.8279 6.28297C37.7368 6.28297 37.6318 6.25547 37.5589 6.29359C37.4702 6.33983 37.3469 6.44043 37.3457 6.51979C37.3305 7.3321 37.3366 8.14442 37.3372 8.95673C37.3372 9.21292 37.5194 9.18543 37.6803 9.18543H43.1753C43.2561 9.18543 43.3374 9.18543 43.4182 9.18543C43.595 9.17731 43.6782 9.25604 43.6764 9.4435C43.6727 9.81841 43.6745 10.1933 43.6818 10.5682C43.6818 10.7407 43.6211 10.8057 43.4468 10.8057C40.9675 10.7982 38.4882 10.7949 36.0089 10.7957C35.7872 10.7957 35.679 10.7395 35.6809 10.4789C35.69 8.81364 35.6857 7.14777 35.6857 5.48003L35.6803 5.4744Z" fill="black"/>
<path d="M19.385 10.7969C19.1014 10.7969 18.6968 10.7813 18.2917 10.8032C18.0773 10.815 17.9808 10.7369 17.9273 10.537C17.7165 9.77776 17.4918 9.02293 17.2847 8.26311C17.2203 8.02566 17.1092 7.93568 16.8595 7.93818C15.3933 7.95068 13.9269 7.95068 12.4603 7.93818C12.2307 7.93818 12.1105 8.00566 12.0485 8.23811C11.8505 8.97857 11.6288 9.71278 11.4363 10.4551C11.3755 10.6969 11.2729 10.8044 11.0214 10.7944C10.6382 10.7788 10.2531 10.7857 9.86742 10.7988C9.61961 10.8069 9.56799 10.7225 9.64877 10.482C10.2561 8.68676 10.8101 6.87343 11.4612 5.09695C12.0236 3.5623 12.6935 2.07014 13.3076 0.556108C13.406 0.314288 13.5457 0.195567 13.8069 0.199316C14.4325 0.20744 15.0587 0.181821 15.6824 0.211189C15.8142 0.217437 16.0001 0.374276 16.0548 0.507371C16.8522 2.45005 17.6661 4.38649 18.4023 6.35354C18.9058 7.69824 19.2927 9.08855 19.7336 10.4582C19.8065 10.6832 19.7889 10.8356 19.385 10.7969ZM16.616 6.35354C16.5914 6.21778 16.5583 6.08378 16.517 5.95238C16.0056 4.65455 15.4941 3.35735 14.9682 2.06577C14.9202 1.94829 14.7714 1.80395 14.6645 1.80145C14.5576 1.79895 14.4039 1.94017 14.3571 2.05515C13.8214 3.36735 13.3009 4.68392 12.778 6.00112C12.7421 6.11655 12.7137 6.23428 12.6929 6.35354H16.616Z" fill="black"/>
<path d="M90.5226 4.54586C91.0176 4.57648 91.4276 4.63834 91.8254 4.24593C93.0256 3.06307 94.1833 1.8446 95.2043 0.496778C95.3628 0.28745 95.531 0.19122 95.7928 0.201843C96.2562 0.219964 96.7209 0.201843 97.1855 0.201843C97.2817 0.212878 97.377 0.231683 97.4704 0.258082C96.051 2.09862 94.4685 3.79951 92.7432 5.3388C94.6224 7.01467 96.3814 8.77552 97.9994 10.7644C97.8867 10.7878 97.7727 10.8039 97.6581 10.8126C97.1327 10.8126 96.6061 10.8194 96.0819 10.7944C95.9339 10.7827 95.7952 10.7161 95.6914 10.607C94.452 9.14876 93.1297 7.76748 91.7313 6.47042C91.3997 6.15799 91.0444 6.22797 90.6818 6.24734C90.621 6.25047 90.5281 6.44605 90.5275 6.55353C90.5159 7.72951 90.5275 8.90674 90.5177 10.0827C90.5117 10.8557 90.6738 10.7901 89.8253 10.7888C89.5921 10.7888 89.3583 10.7732 89.1269 10.7938C88.8955 10.8144 88.8554 10.7195 88.8554 10.5083C88.8602 7.18651 88.8602 3.86497 88.8554 0.543642C88.8554 0.259332 88.9556 0.17935 89.2089 0.191847C89.5314 0.208093 89.8557 0.215591 90.1807 0.198719C90.4431 0.185597 90.5323 0.276826 90.5299 0.553013C90.5178 1.75024 90.5244 2.94809 90.525 4.14532L90.5226 4.54586Z" fill="black"/>
<path d="M31.8605 8.90672C31.4909 9.50126 30.9811 9.98988 30.3785 10.327C29.1637 11.0312 27.8518 11.1012 26.5198 10.9056C24.8483 10.6594 23.6239 9.74028 22.9157 8.15127C22.3793 6.94967 22.3144 5.67996 22.519 4.39212C22.7292 3.07055 23.302 1.94705 24.3296 1.10287C25.1161 0.452388 26.0849 0.0789278 27.0932 0.0374865C28.2138 -0.0249994 29.2943 0.0831021 30.2764 0.714209C30.8965 1.11247 31.4158 1.65668 31.7912 2.30197C31.8684 2.43132 31.8726 2.52567 31.7196 2.60128C31.3284 2.7954 30.9399 2.99515 30.554 3.20052C30.3864 3.28987 30.3159 3.1874 30.2436 3.0643C29.7717 2.26636 29.0757 1.79147 28.1865 1.67274C26.0521 1.38906 24.6029 2.60316 24.2659 4.64082C24.114 5.55624 24.1614 6.46665 24.5197 7.3377C25.0141 8.53806 25.9009 9.2179 27.1539 9.34288C28.0765 9.43473 28.9761 9.31976 29.7511 8.71802C29.8244 8.66315 29.8946 8.60389 29.9612 8.54056C30.3603 8.15439 30.3596 8.15377 30.8692 8.41121C31.1839 8.56867 31.5003 8.72801 31.8605 8.90672Z" fill="black"/>
<path d="M0.00486878 5.47498V0.633586C0.00486878 0.203059 0.00486345 0.196183 0.42456 0.193058C2.3961 0.189309 4.36785 0.189309 6.3398 0.193058C6.71333 0.193058 7.08747 0.210555 7.4604 0.201182C7.65051 0.196183 7.67906 0.293661 7.67785 0.451125C7.67785 0.804795 7.66873 1.15971 7.68452 1.51338C7.69606 1.76333 7.59523 1.83456 7.36321 1.83144C6.4728 1.82144 5.58178 1.82769 4.69076 1.82769C3.7797 1.82769 2.86864 1.83519 1.95757 1.82206C1.72738 1.81894 1.66421 1.88892 1.66907 2.12325C1.68365 2.88245 1.68608 3.6429 1.66907 4.40273C1.663 4.70016 1.75532 4.80139 2.04929 4.79889C3.45597 4.78639 4.86265 4.80264 6.26933 4.78639C6.58274 4.78264 6.68296 4.88762 6.65928 5.19755C6.64093 5.48881 6.63991 5.78096 6.65624 6.07235C6.66717 6.31604 6.57606 6.39977 6.33858 6.39852C4.94162 6.39227 3.54465 6.39852 2.14769 6.39852C1.67333 6.39852 1.67272 6.39852 1.67272 6.87529C1.67272 8.06252 1.66543 9.24975 1.67697 10.437C1.67697 10.7225 1.60045 10.8294 1.31255 10.8013C0.99988 10.77 0.685004 10.77 0.372334 10.8013C0.0601429 10.8344 -0.0054649 10.7082 -0.00364278 10.4151C0.0103269 8.76486 0.00486878 7.12024 0.00486878 5.47498Z" fill="black"/>
</g>
<defs>
<clipPath id="clip0_1_94">
<rect width="98" height="11" fill="white"/>
</clipPath>
</defs>
</svg>
