<svg width="69" height="22" viewBox="0 0 69 22" fill="none" xmlns="http://www.w3.org/2000/svg">
<g clip-path="url(#clip0_1_87)">
<path d="M47.5374 22C47.4593 21.9314 47.357 21.9517 47.2674 21.94C45.6928 21.7268 44.484 20.9518 43.5843 19.6985C43.402 19.444 43.2395 19.1766 43.0982 18.8987C43.0294 18.7635 43.0294 18.7635 43.1623 18.7094C43.7953 18.4515 44.4287 18.1944 45.0626 17.938C45.1965 17.8835 45.1974 17.8848 45.2592 18.0092C45.483 18.4784 45.8154 18.8911 46.2305 19.2152C46.7282 19.603 47.3448 19.8192 47.983 19.8297C48.4966 19.8437 48.9939 19.7733 49.4623 19.5628C50.2561 19.2057 50.7171 18.5867 50.9379 17.7811C51.0129 17.504 51.0516 17.2187 51.0531 16.9322C51.0555 16.5756 51.0531 16.219 51.0531 15.8619C51.0531 15.8353 51.0485 15.8083 51.0438 15.7569C50.8816 15.9142 50.745 16.0594 50.593 16.1892C50.0613 16.6468 49.3974 16.9347 48.6913 17.0138C46.9839 17.2221 45.5311 16.6883 44.3042 15.5495C43.4151 14.7345 42.8383 13.6504 42.6683 12.4753C42.4104 10.8072 42.8356 9.30869 43.937 8.00309C44.6927 7.10774 45.6533 6.50543 46.8184 6.23268C47.6466 6.03883 48.4766 6.03342 49.3006 6.27236C49.8981 6.44595 50.4427 6.75858 50.8872 7.18303C50.9304 7.2236 50.9746 7.26283 51.0192 7.30205C51.022 7.30205 51.0304 7.30205 51.0541 7.29619V6.76376C51.0541 6.68216 51.0564 6.60011 51.0541 6.51806C51.0517 6.45314 51.0768 6.41887 51.147 6.42293C51.1772 6.42293 51.2074 6.42293 51.2376 6.42293C51.9069 6.42293 52.5762 6.42293 53.2458 6.42293C53.4261 6.42293 53.4275 6.42293 53.4275 6.58929C53.4275 9.86952 53.434 13.1502 53.4238 16.4304C53.421 17.3835 53.2639 18.3172 52.8563 19.1949C52.1513 20.7142 50.9314 21.5933 49.2537 21.8967C49.0823 21.9296 48.9091 21.9528 48.735 21.9662C48.7062 21.9684 48.6737 21.9639 48.6611 22H47.5374ZM51.2409 11.6016C51.2469 10.823 51.068 10.1139 50.6079 9.49759C49.9257 8.58421 49.0069 8.13202 47.8301 8.27719C46.9471 8.38629 46.25 8.82089 45.7309 9.51652C45.354 10.0205 45.163 10.5913 45.1007 11.2089C45.0301 11.9118 45.1319 12.5844 45.4535 13.2196C46.027 14.3508 47.266 15.0423 48.5505 14.8809C49.4735 14.7646 50.1836 14.3142 50.6883 13.5627C51.0922 12.9595 51.2497 12.2909 51.2409 11.6016Z" fill="black"/>
<path d="M69.0028 10.2095C68.6073 10.3664 68.2127 10.521 67.8168 10.6797C65.7651 11.5059 63.7134 12.3324 61.6617 13.1592C61.6009 13.184 61.5418 13.212 61.4717 13.2426C61.8267 13.9 62.298 14.4382 63.0276 14.6925C64.0073 15.0338 64.9702 14.981 65.8839 14.4703C66.2706 14.2543 66.581 13.9522 66.8427 13.6038C66.8919 13.5379 66.9421 13.4726 66.9956 13.4022C67.0184 13.4112 67.0406 13.4216 67.062 13.4333C67.6541 13.815 68.2459 14.1972 68.8373 14.5798C68.9001 14.6204 68.9591 14.6434 68.8838 14.7362C68.1096 15.7082 67.1643 16.4656 65.9336 16.8101C64.0333 17.3407 62.2622 17.0594 60.6946 15.8678C59.6034 15.0387 58.9876 13.9175 58.7673 12.5984C58.568 11.4015 58.6744 10.2284 59.194 9.11576C59.9376 7.52523 61.1863 6.51583 62.9653 6.1741C65.1454 5.75573 67.0974 6.73808 68.203 8.46341C68.44 8.83264 68.611 9.22982 68.7848 9.6288C68.8545 9.78794 68.9284 9.94438 69.0005 10.104L69.0028 10.2095ZM66.1181 9.36552C66.1096 9.33795 66.0995 9.31087 66.0879 9.28437C66.0693 9.24764 66.0485 9.21196 66.0257 9.17752C65.6316 8.59685 65.0636 8.29209 64.3633 8.21094C63.7047 8.13565 63.1006 8.28939 62.5559 8.63923C61.7765 9.13785 61.2621 9.81815 61.091 10.7203C61.0456 10.947 61.0443 11.1801 61.0873 11.4073L66.1181 9.36552Z" fill="black"/>
<path d="M14.6248 10.1143C14.5492 10.0943 14.4703 10.0883 14.3924 10.0967H9.18314C9.14085 10.0967 9.09856 10.0967 9.05674 10.0967C8.92057 10.0927 8.91731 10.0927 8.91731 9.95654C8.91731 9.27218 8.91731 8.58797 8.91731 7.90391C8.91731 7.76866 8.9201 7.76866 9.05674 7.76371C9.08694 7.76371 9.11715 7.76371 9.14968 7.76371H16.7491C17.0238 7.76371 16.9815 7.73981 17.0191 7.9801C17.2622 9.58686 17.1065 11.1512 16.4345 12.6484C15.7727 14.1226 14.7103 15.2533 13.2612 16.0387C12.3132 16.5526 11.2954 16.8551 10.2195 16.9899C9.5853 17.0696 8.94444 17.0869 8.30664 17.0418C6.33335 16.902 4.58035 16.2244 3.08574 14.9585C1.50562 13.6191 0.513407 11.9424 0.139291 9.93986C-0.179521 8.23302 0.0672588 6.5902 0.827109 5.01951C1.33863 3.95695 2.067 3.00607 2.96817 2.22437C4.22622 1.12841 5.68318 0.421054 7.35392 0.133876C7.9651 0.0262468 8.58669 -0.0153331 9.20731 0.00989818C11.1165 0.0942032 12.8411 0.675322 14.3501 1.82674C14.5167 1.95172 14.6746 2.08726 14.8228 2.23248C14.9194 2.32941 14.9199 2.33077 14.8274 2.42409C14.4844 2.76942 14.1438 3.11701 13.7966 3.45829C13.6144 3.63637 13.4206 3.80317 13.2222 3.98396C13.0828 3.87576 12.9434 3.7342 12.7798 3.61428C11.8503 2.92676 10.8074 2.49892 9.63951 2.37675C8.28665 2.23519 7.00537 2.46692 5.82446 3.12558C4.18068 4.04256 3.16568 5.4203 2.7739 7.21369C2.44858 8.70504 2.62426 10.1504 3.3711 11.5002C4.29035 13.1624 5.72222 14.1979 7.62161 14.5965C9.04137 14.9051 10.5272 14.7346 11.8336 14.1132C13.3021 13.4288 14.2098 12.3008 14.536 10.7446C14.5588 10.6359 14.5825 10.5273 14.5978 10.4173C14.609 10.319 14.6146 10.2198 14.6248 10.1143Z" fill="black"/>
<path d="M29.2317 11.5751C29.2317 12.9275 28.8167 14.1398 27.9044 15.1727C27.059 16.1302 25.9864 16.7204 24.7089 16.953C23.547 17.164 22.4107 17.0711 21.3232 16.6239C19.6306 15.9269 18.545 14.6912 18.0933 12.9722C17.6113 11.14 17.978 9.45571 19.2351 7.99277C20.1056 6.97886 21.2391 6.38421 22.5813 6.16872C23.8179 5.9699 25.0119 6.12363 26.1375 6.65606C27.7641 7.42653 28.767 8.67848 29.122 10.407C29.149 10.5386 29.1685 10.6716 29.188 10.8046C29.2219 11.06 29.2365 11.3175 29.2317 11.5751ZM20.3789 11.3447C20.3789 12.135 20.4853 12.6521 20.7325 13.1331C21.3125 14.257 22.2564 14.8792 23.5507 14.8945C24.819 14.9098 25.7606 14.3084 26.361 13.2359C26.7909 12.4659 26.8629 11.6337 26.6863 10.7834C26.3303 9.07025 24.7567 8.03785 23.1315 8.27724C22.3879 8.3868 21.7596 8.70283 21.2568 9.24382C20.6475 9.89933 20.3872 10.6833 20.3789 11.3447Z" fill="black"/>
<path d="M36.0587 6.08752C37.3512 6.1033 38.6464 6.54061 39.7478 7.46616C40.573 8.15403 41.1494 9.08018 41.3926 10.1089C41.69 11.3162 41.6537 12.5118 41.1718 13.6705C40.4975 15.2935 39.2743 16.3534 37.5468 16.8362C36.1061 17.2383 34.6873 17.1256 33.3419 16.4823C31.7576 15.724 30.7891 14.4702 30.3875 12.8112C30.0826 11.552 30.2114 10.3235 30.7904 9.15542C31.3821 7.96252 32.3115 7.09377 33.5626 6.55503C34.3067 6.23495 35.0884 6.09203 36.0587 6.08752ZM32.72 11.5457C32.7167 11.7621 32.7322 11.9784 32.7665 12.1922C32.7931 12.3416 32.8283 12.4894 32.872 12.6349C33.2996 14.0663 34.658 15.0306 36.2205 14.8836C36.9734 14.8194 37.674 14.4833 38.1835 13.9419C38.8435 13.2593 39.1172 12.4311 39.1046 11.5074C39.0944 10.7951 38.9062 10.1337 38.4814 9.54583C38.2323 9.19601 37.9099 8.9011 37.5353 8.68036C37.1607 8.45962 36.7423 8.31801 36.3074 8.26479C35.8726 8.21157 35.431 8.24792 35.0116 8.37148C34.5922 8.49504 34.2044 8.70302 33.8735 8.98185C33.0733 9.65268 32.7317 10.5327 32.72 11.5457Z" fill="black"/>
<path d="M57.5595 8.6654V16.5432C57.5595 16.7461 57.5781 16.7334 57.3648 16.7334H55.2655C55.2293 16.7334 55.193 16.7334 55.1572 16.7334C55.0973 16.7334 55.0671 16.7113 55.0699 16.6509C55.0699 16.6099 55.0699 16.5689 55.0699 16.5279V0.754256C55.0699 0.546874 55.0545 0.564456 55.2641 0.564456H57.3634C57.3996 0.564456 57.4359 0.564456 57.4721 0.564456C57.5321 0.562202 57.5613 0.586998 57.5595 0.646958C57.5595 0.699705 57.5595 0.752452 57.5595 0.805199V8.6654Z" fill="black"/>
</g>
<defs>
<clipPath id="clip0_1_87">
<rect width="69" height="22" fill="white"/>
</clipPath>
</defs>
</svg>
