<svg width="26" height="31" viewBox="0 0 26 31" fill="none" xmlns="http://www.w3.org/2000/svg">
<g clip-path="url(#clip0_21_150)">
<path d="M13.3106 0C13.3798 0.0364011 13.4474 0.0752353 13.5182 0.107592C14.0011 0.334897 14.2764 0.706997 14.2951 1.24007C14.309 1.64453 14.3065 2.04898 14.2951 2.45344C14.2951 2.62574 14.3432 2.69611 14.5248 2.73008C18.3107 3.41362 21.1325 6.12025 21.9151 9.855C22.0478 10.4908 22.0779 11.1541 22.0942 11.8069C22.13 13.1675 22.0665 14.5329 22.152 15.8903C22.297 18.2111 23.3011 20.1476 25.0406 21.6991C25.5422 22.1464 25.9274 22.6463 25.9877 23.3315C26.1057 24.6929 25.1546 25.7647 23.7734 25.8391C23.692 25.8432 23.6105 25.8391 23.5291 25.8391C16.511 25.8391 9.49284 25.8391 2.47471 25.8391C1.66523 25.8391 0.979545 25.5916 0.4722 24.9445C-0.283524 23.9802 -0.126353 22.6569 0.856577 21.801C1.70999 21.0653 2.41543 20.1758 2.93563 19.1794C3.58496 17.919 3.91825 16.5214 3.90716 15.1057C3.90716 13.8648 3.89332 12.6231 3.91612 11.3847C3.99756 7.13704 7.20938 3.43949 11.4237 2.74221C11.668 2.70257 11.7291 2.61604 11.7136 2.3952C11.6973 2.15253 11.7299 1.90985 11.7063 1.66718C11.6297 0.866355 11.9335 0.300109 12.7006 0.00161941L13.3106 0Z" fill="#2B83F2"/>
<path d="M17.7489 27.1416C17.5046 28.8241 15.788 30.9702 13.0542 31.0001C10.4213 31.0284 8.54994 29.0037 8.26003 27.1416H17.7489Z" fill="#2B83F2"/>
</g>
<defs>
<clipPath id="clip0_21_150">
<rect width="26" height="31" fill="white"/>
</clipPath>
</defs>
</svg>
