<svg width="33" height="20" viewBox="0 0 33 20" fill="none" xmlns="http://www.w3.org/2000/svg">
<path d="M0 9.57773C0.867709 8.72842 1.61545 7.97902 2.38271 7.24906C4.34971 5.36447 6.4004 3.5798 8.77474 2.20869C14.1456 -0.894359 19.4802 -0.647337 24.7562 2.44461C27.5881 4.10438 29.9122 6.36366 32.0913 8.78115C32.3368 9.05315 32.5768 9.32793 32.8306 9.61659C30.1243 12.3505 27.4486 15.0705 24.0475 16.9135C18.2219 20.0692 12.5636 19.6862 7.1314 15.9531C4.88819 14.4127 3.01048 12.456 1.10207 10.5381C0.775637 10.2106 0.401769 9.92467 0.00279006 9.5805L0 9.57773ZM16.4502 2.73049C12.7059 2.73604 9.64803 5.77802 9.64524 9.50279C9.64245 13.247 12.7115 16.2973 16.4753 16.2917C20.2196 16.2862 23.2775 13.2414 23.2803 9.51667C23.2803 5.77247 20.2168 2.72494 16.4474 2.72771L16.4502 2.73049Z" fill="#B6B6B6"/>
<path d="M16.3973 5.48646C15.764 6.76321 15.8003 7.99277 16.8075 9.05025C17.8705 10.1632 19.1483 10.2437 20.5071 9.58593C20.5964 11.4761 18.9223 13.5577 16.5508 13.5938C14.1486 13.6299 12.2429 11.687 12.3824 9.28339C12.5331 6.72713 14.8014 5.35879 16.3946 5.48369L16.3973 5.48646Z" fill="#B6B6B6"/>
</svg>
