<svg width="21" height="16" viewBox="0 0 21 16" fill="none" xmlns="http://www.w3.org/2000/svg">
<path d="M19.1717 0.913735C19.9694 1.24653 20.5627 1.76651 20.8176 2.54765C21.1357 3.52753 20.8858 4.39649 20.1209 5.13371C18.3387 6.85313 16.549 8.57024 14.7642 10.2874C13.4768 11.5261 12.1516 12.7348 10.9121 14.0105C9.75848 15.2006 8.0596 15.4086 6.72675 14.4149C5.02534 12.8064 3.32141 11.2002 1.62253 9.58942C0.605222 8.63264 0.431043 7.37543 1.15805 6.33084C2.1072 4.96732 4.19483 4.73159 5.45196 5.86863C6.42887 6.75145 7.37803 7.65969 8.32213 8.57255C8.53922 8.78286 8.64525 8.75282 8.84214 8.55869C11.1847 6.29386 13.55 4.04983 15.88 1.77576C16.809 0.869825 17.8667 0.537034 19.1717 0.916046V0.913735Z" fill="#FDFEFE"/>
</svg>
