<svg width="28" height="22" viewBox="0 0 28 22" fill="none" xmlns="http://www.w3.org/2000/svg">
<path d="M25.5364 1.11263C26.6401 1.58657 27.4608 2.3271 27.8135 3.43954C28.2536 4.83504 27.9078 6.07255 26.8496 7.12246C24.3839 9.57115 21.9077 12.0166 19.4385 14.462C17.6573 16.2261 15.8238 17.9474 14.109 19.7642C12.5129 21.4592 10.1624 21.7554 8.31841 20.3401C5.96446 18.0494 3.60702 15.762 1.25657 13.468C-0.150905 12.1054 -0.391887 10.315 0.613952 8.82733C1.92713 6.88549 4.81543 6.54978 6.55469 8.16908C7.90629 9.42634 9.21947 10.7198 10.5257 12.0198C10.826 12.3193 10.9727 12.2766 11.2451 12.0001C14.4862 8.77467 17.7586 5.57886 20.9822 2.34027C22.2674 1.05009 23.7308 0.576154 25.5364 1.11592V1.11263Z" fill="#FDFEFE"/>
</svg>
