<svg width="24" height="23" viewBox="0 0 24 23" fill="none" xmlns="http://www.w3.org/2000/svg">
<g clip-path="url(#clip0_22_192)">
<path d="M24 22.4307C23.8141 22.8749 23.4916 23.0005 23.0565 22.9998C17.0889 22.9896 11.122 22.993 5.15435 22.993C4.51139 22.993 4.26785 22.7262 4.26723 22.0199C4.26723 21.332 4.26723 20.6442 4.26723 19.927H4.55897C9.33894 19.927 14.1195 19.9222 18.8995 19.9318C19.5969 19.9331 20.1729 19.6868 20.6712 19.1607C22.0379 17.7174 23.034 16.0033 23.8091 14.1239C23.8692 13.9786 23.9361 13.8367 24 13.6934V22.4307Z" fill="white"/>
<path d="M24 4.5987H4.28663C4.27912 4.52978 4.26785 4.47382 4.26785 4.41718C4.2666 3.72729 4.26472 3.03807 4.26785 2.34817C4.27035 1.84798 4.55584 1.53476 5.01349 1.5334C6.07528 1.53067 7.13771 1.53272 8.1995 1.53272C8.28402 1.53272 8.36917 1.53272 8.48499 1.53272C8.48499 1.28228 8.48311 1.04754 8.48499 0.812793C8.49125 0.335119 8.78174 6.52125e-05 9.18805 6.52125e-05C9.59436 6.52125e-05 9.88486 0.334437 9.89112 0.812793C9.89425 1.04139 9.89112 1.27 9.89112 1.51566H13.4064C13.4064 1.27614 13.4039 1.04071 13.4064 0.804605C13.4133 0.331025 13.7101 -0.00402914 14.117 6.52125e-05C14.5146 0.00415956 14.8044 0.333072 14.8126 0.795051C14.817 1.03184 14.8132 1.26795 14.8132 1.51839H18.3755C18.3755 1.29115 18.3736 1.05709 18.3755 0.822347C18.3792 0.340579 18.6635 0.00484195 19.0685 6.52125e-05C19.4849 -0.00539392 19.776 0.33239 19.781 0.827806C19.7829 1.0489 19.781 1.27 19.781 1.53272H20.0333C21.0488 1.53272 22.0642 1.54841 23.0791 1.52521C23.5104 1.51566 23.8209 1.65828 23.9994 2.09432V4.59802L24 4.5987Z" fill="white"/>
<path d="M23.9693 6.1499C23.9242 7.90911 23.692 9.61236 23.2431 11.2774C22.6026 13.6501 21.5997 15.8119 20.059 17.6516C20.0539 17.6578 20.0477 17.6639 20.0433 17.6707C19.6595 18.2139 19.1818 18.4145 18.5276 18.4111C12.6314 18.3825 6.73452 18.3934 0.838292 18.3968C0.527141 18.3968 0.266074 18.3163 0.100168 18.0099C-0.0663641 17.7021 -0.0244181 17.3391 0.222876 17.075C2.28825 14.8654 3.397 12.1229 3.93165 9.076C4.08817 8.18548 4.13199 7.27107 4.22778 6.36758C4.23467 6.30071 4.2403 6.23384 4.24844 6.1499H23.9693Z" fill="white"/>
</g>
<defs>
<clipPath id="clip0_22_192">
<rect width="24" height="23" fill="white"/>
</clipPath>
</defs>
</svg>
